<svg width="60" height="60" viewBox="0 0 60 60" fill="none" xmlns="http://www.w3.org/2000/svg">
<g id="fluent:arrow-minimize-20-regular">
<path id="Vector" d="M10.4991 32.9997H25.4991C25.8502 32.9996 26.1902 33.1227 26.4599 33.3474C26.7296 33.5722 26.9119 33.8844 26.9751 34.2297L26.9991 34.4997V49.4997C26.9998 49.8746 26.8601 50.2361 26.6076 50.5131C26.355 50.7901 26.0079 50.9625 25.6346 50.9964C25.2613 51.0302 24.8888 50.9231 24.5906 50.6961C24.2923 50.4691 24.0899 50.1386 24.0231 49.7697L23.9991 49.4997V38.1177L8.56108 53.5617C8.29651 53.8275 7.942 53.9845 7.56741 54.0019C7.19282 54.0192 6.82532 53.8956 6.53733 53.6554C6.24935 53.4152 6.06177 53.0759 6.01156 52.7043C5.96135 52.3327 6.05215 51.9557 6.26608 51.6477L6.43708 51.4377L21.8751 35.9997H10.4991C10.148 35.9999 9.80801 35.8768 9.5383 35.6521C9.2686 35.4273 9.08627 35.1151 9.02308 34.7697L8.99908 34.4997C8.99896 34.1487 9.12199 33.8087 9.34675 33.539C9.5715 33.2693 9.88374 33.0869 10.2291 33.0238L10.4991 32.9997ZM53.5611 6.43775C53.8091 6.68632 53.9621 7.01402 53.9933 7.36377C54.0246 7.71352 53.9321 8.06315 53.7321 8.35175L53.5611 8.56175L38.1171 23.9998H49.4991C49.8502 23.9996 50.1902 24.1227 50.4599 24.3474C50.7296 24.5722 50.9119 24.8844 50.9751 25.2297L50.9991 25.4998C50.9992 25.8508 50.8762 26.1908 50.6514 26.4605C50.4267 26.7302 50.1144 26.9126 49.7691 26.9757L49.4991 26.9998H34.4391L34.2321 26.9757L33.9261 26.8857L33.6981 26.7657L33.5331 26.6458L33.4371 26.5618L33.3261 26.4358L33.2001 26.2498L33.1101 26.0697L33.0501 25.8838L33.0321 25.8147C33.0099 25.7112 32.9988 25.6056 32.9991 25.4998L33.0141 25.7218L33.0051 25.6287L32.9991 10.4998C32.9984 10.1249 33.1381 9.7634 33.3906 9.4864C33.6431 9.2094 33.9902 9.03699 34.3635 9.00313C34.7368 8.96926 35.1093 9.07638 35.4076 9.30341C35.7058 9.53044 35.9083 9.86091 35.9751 10.2298L35.9991 10.4998V21.8757L51.4371 6.43775C51.5764 6.29806 51.7419 6.18723 51.9242 6.11161C52.1064 6.03599 52.3018 5.99707 52.4991 5.99707C52.6964 5.99707 52.8917 6.03599 53.074 6.11161C53.2562 6.18723 53.4217 6.29806 53.5611 6.43775Z" fill="#17383E"/>
</g>
</svg>
