<svg width="61" height="60" viewBox="0 0 61 60" fill="none" xmlns="http://www.w3.org/2000/svg">
<g id="lucide:heart-handshake">
<g id="Group">
<path id="Vector" d="M47.8859 34.9998C51.6109 31.3498 55.3859 26.9748 55.3859 21.2498C55.3859 17.603 53.9373 14.1057 51.3587 11.527C48.78 8.94841 45.2827 7.49976 41.6359 7.49976C37.2359 7.49976 34.136 8.74976 30.386 12.4998C26.636 8.74976 23.536 7.49976 19.136 7.49976C15.4892 7.49976 11.9919 8.94841 9.41324 11.527C6.83461 14.1057 5.38596 17.603 5.38596 21.2498C5.38596 26.9998 9.13596 31.3748 12.886 34.9998L30.386 52.4998L47.8859 34.9998Z" stroke="#17383E" stroke-width="3.04937" stroke-linecap="round" stroke-linejoin="round"/>
<path id="Vector_2" d="M30.3871 12.5001L22.9871 19.9001C22.4791 20.4044 22.076 21.0042 21.8009 21.6649C21.5258 22.3257 21.3841 23.0344 21.3841 23.7501C21.3841 24.4659 21.5258 25.1745 21.8009 25.8353C22.076 26.4961 22.4791 27.0959 22.9871 27.6001C25.0371 29.6501 28.3121 29.7251 30.4871 27.7751L35.6621 23.0251C36.9592 21.8481 38.648 21.1961 40.3996 21.1961C42.1511 21.1961 43.8399 21.8481 45.1371 23.0251L52.5371 29.6751M45.3871 37.5001L40.3871 32.5001M37.8871 45.0001L32.8871 40.0001" stroke="#17383E" stroke-width="3.04937" stroke-linecap="round" stroke-linejoin="round"/>
</g>
</g>
</svg>
