<svg width="32" height="32" viewBox="0 0 32 32" fill="none" xmlns="http://www.w3.org/2000/svg">
<g id="Group 379">
<path id="Vector" d="M22.9996 19.4817V21.5893C23.0004 21.7849 22.9602 21.9786 22.8817 22.1578C22.8031 22.3371 22.6879 22.498 22.5435 22.6303C22.399 22.7626 22.2285 22.8633 22.0428 22.9259C21.8571 22.9886 21.6603 23.0119 21.465 22.9943C19.299 22.7594 17.2183 22.0207 15.3902 20.8376C13.6895 19.7589 12.2475 18.3198 11.1667 16.6224C9.9771 14.7897 9.23677 12.7031 9.00571 10.5316C8.98812 10.3373 9.01126 10.1415 9.07364 9.95664C9.13603 9.77178 9.2363 9.60191 9.36807 9.45785C9.49984 9.31378 9.66022 9.19868 9.839 9.11986C10.0178 9.04105 10.2111 9.00025 10.4065 9.00007H12.5183C12.8599 8.99671 13.1911 9.11744 13.4501 9.33976C13.7091 9.56208 13.8783 9.87081 13.9261 10.2084C14.0152 10.8829 14.1805 11.5451 14.4188 12.1825C14.5135 12.4339 14.534 12.7072 14.4779 12.9699C14.4218 13.2327 14.2913 13.4738 14.1021 13.6648L13.2081 14.557C14.2102 16.3158 15.6693 17.7721 17.4316 18.7721L18.3256 17.8799C18.5169 17.6911 18.7586 17.5609 19.0218 17.5049C19.2851 17.4488 19.5589 17.4693 19.8108 17.5638C20.4495 17.8016 21.113 17.9666 21.7888 18.0556C22.1308 18.1037 22.4431 18.2756 22.6663 18.5386C22.8895 18.8015 23.0081 19.1372 22.9996 19.4817Z" fill="white"/>
<path id="Vector_2" d="M16 31C24.2843 31 31 24.2843 31 16C31 7.71573 24.2843 1 16 1C7.71573 1 1 7.71573 1 16C1 24.2843 7.71573 31 16 31Z" stroke="white" stroke-width="2" stroke-linecap="round" stroke-linejoin="round"/>
</g>
</svg>
