<svg width="60" height="60" viewBox="0 0 60 60" fill="none" xmlns="http://www.w3.org/2000/svg">
<g id="ion:pricetags-outline">
<path id="Vector" d="M44.9969 6H32.1424C31.7428 5.99971 31.3594 6.15761 31.0758 6.43919L5.37739 32.1313C4.81483 32.6966 4.49902 33.4617 4.49902 34.2593C4.49902 35.0568 4.81483 35.8219 5.37739 36.3872L17.6118 48.6215C18.1773 49.1842 18.9425 49.5 19.7402 49.5C20.5379 49.5 21.3032 49.1842 21.8687 48.6215L47.5598 22.9399C47.8414 22.6563 47.9993 22.2729 47.999 21.8733V9.01154C48.0009 8.61631 47.9247 8.2246 47.7746 7.85897C47.6245 7.49333 47.4036 7.161 47.1246 6.88109C46.8455 6.60118 46.5139 6.37923 46.1487 6.22802C45.7836 6.0768 45.3921 5.99931 44.9969 6Z" stroke="#BC051E" stroke-width="3.04937" stroke-linecap="round" stroke-linejoin="round"/>
<path id="Vector_2" d="M39.749 16.4753C39.3089 16.4753 38.8787 16.3448 38.5127 16.1003C38.1468 15.8558 37.8615 15.5082 37.6931 15.1016C37.5247 14.695 37.4806 14.2475 37.5665 13.8159C37.6523 13.3842 37.8643 12.9877 38.1755 12.6765C38.4867 12.3652 38.8832 12.1533 39.3149 12.0674C39.7466 11.9816 40.194 12.0256 40.6006 12.1941C41.0072 12.3625 41.3548 12.6477 41.5993 13.0137C41.8438 13.3796 41.9743 13.8099 41.9743 14.25C41.9743 14.8402 41.7399 15.4062 41.3226 15.8235C40.9052 16.2409 40.3392 16.4753 39.749 16.4753Z" fill="black" stroke="#BC051E" stroke-width="3.04937"/>
<path id="Vector_3" d="M27.0001 52.4999L55.0713 24.9899C55.2108 24.8519 55.3207 24.6879 55.3943 24.5075C55.4679 24.3271 55.5038 24.1341 55.4998 23.9399V10.4999" stroke="#BC051E" stroke-width="3.04937" stroke-linecap="round" stroke-linejoin="round"/>
</g>
</svg>
