<svg width="22" height="22" viewBox="0 0 22 22" fill="none" xmlns="http://www.w3.org/2000/svg">
<g id="ri:whatsapp-fill">
<path id="Vector" d="M6.51667 9.99167C7.71667 12.35 9.65 14.2833 12.0083 15.4833L13.8417 13.65C14.075 13.4167 14.4 13.35 14.6917 13.4417C15.625 13.75 16.625 13.9167 17.6667 13.9167C17.8877 13.9167 18.0996 14.0045 18.2559 14.1607C18.4122 14.317 18.5 14.529 18.5 14.75V17.6667C18.5 17.8877 18.4122 18.0996 18.2559 18.2559C18.0996 18.4122 17.8877 18.5 17.6667 18.5C13.9094 18.5 10.3061 17.0074 7.64932 14.3507C4.99256 11.6939 3.5 8.09057 3.5 4.33333C3.5 4.11232 3.5878 3.90036 3.74408 3.74408C3.90036 3.5878 4.11232 3.5 4.33333 3.5H7.25C7.47101 3.5 7.68298 3.5878 7.83926 3.74408C7.99554 3.90036 8.08333 4.11232 8.08333 4.33333C8.08333 5.375 8.25 6.375 8.55833 7.30833C8.65 7.6 8.58333 7.925 8.35 8.15833L6.51667 9.99167Z" fill="white"/>
</g>
</svg>
