<svg width="15" height="15" viewBox="0 0 15 15" fill="none" xmlns="http://www.w3.org/2000/svg">
<g id="akar-icons:vk-fill" clip-path="url(#clip0_104_964)">
<g id="Group">
<path id="Vector" fill-rule="evenodd" clip-rule="evenodd" d="M14.6562 3.7175C14.76 3.37625 14.6562 3.125 14.1594 3.125H12.5188C12.1013 3.125 11.9087 3.34188 11.8044 3.58125C11.8044 3.58125 10.97 5.57875 9.78813 6.87625C9.40563 7.2525 9.23188 7.37187 9.02312 7.37187C8.91875 7.37187 8.76188 7.2525 8.76188 6.91062V3.7175C8.76188 3.3075 8.64688 3.125 8.29938 3.125H5.71938C5.45875 3.125 5.30188 3.315 5.30188 3.49562C5.30188 3.88375 5.89313 3.97375 5.95375 5.06625V7.44C5.95375 7.96063 5.85812 8.055 5.64937 8.055C5.09312 8.055 3.74 6.04812 2.93687 3.75187C2.78125 3.305 2.62375 3.125 2.20438 3.125H0.5625C0.09375 3.125 0 3.34188 0 3.58125C0 4.0075 0.55625 6.125 2.59063 8.92562C3.94688 10.8381 5.85625 11.875 7.59562 11.875C8.63875 11.875 8.7675 11.645 8.7675 11.2481V9.8025C8.7675 9.34188 8.86625 9.25 9.19687 9.25C9.44063 9.25 9.8575 9.37 10.8313 10.2919C11.9438 11.385 12.1269 11.875 12.7531 11.875H14.3938C14.8625 11.875 15.0975 11.645 14.9625 11.19C14.8138 10.7375 14.2825 10.0806 13.5781 9.30125C13.1956 8.8575 12.6219 8.37937 12.4475 8.14C12.2044 7.83313 12.2738 7.69625 12.4475 7.42312C12.4475 7.42312 14.4475 4.65688 14.6556 3.7175H14.6562Z" fill="white"/>
</g>
</g>
<defs>
<clipPath id="clip0_104_964">
<rect width="15" height="15" fill="white"/>
</clipPath>
</defs>
</svg>
