<svg width="40" height="40" viewBox="0 0 40 40" fill="none" xmlns="http://www.w3.org/2000/svg">
<path d="M20.0017 3.3335C29.2067 3.3335 36.6683 10.7952 36.6683 20.0002C36.6683 29.2052 29.2067 36.6668 20.0017 36.6668C17.0563 36.6716 14.1628 35.8921 11.6183 34.4085L3.34168 36.6668L5.59501 28.3868C4.11017 25.8416 3.33009 22.9468 3.33501 20.0002C3.33501 10.7952 10.7967 3.3335 20.0017 3.3335ZM14.3217 12.1668L13.9883 12.1802C13.7725 12.1933 13.5616 12.25 13.3683 12.3468C13.1875 12.4492 13.0225 12.5772 12.8783 12.7268C12.6783 12.9152 12.565 13.0785 12.4433 13.2368C11.8269 14.0383 11.495 15.0224 11.5 16.0335C11.5033 16.8502 11.7167 17.6452 12.05 18.3885C12.7317 19.8918 13.8533 21.4835 15.3333 22.9585C15.69 23.3135 16.04 23.6702 16.4167 24.0018C18.2557 25.6209 20.4471 26.7886 22.8167 27.4118L23.7633 27.5568C24.0717 27.5735 24.38 27.5502 24.69 27.5352C25.1754 27.5101 25.6494 27.3787 26.0783 27.1502C26.2966 27.0377 26.5096 26.9154 26.7167 26.7835C26.7167 26.7835 26.7883 26.7368 26.925 26.6335C27.15 26.4668 27.2883 26.3485 27.475 26.1535C27.6133 26.0102 27.7333 25.8418 27.825 25.6502C27.955 25.3785 28.085 24.8602 28.1383 24.4285C28.1783 24.0985 28.1667 23.9185 28.1617 23.8068C28.155 23.6285 28.0067 23.4435 27.845 23.3652L26.875 22.9302C26.875 22.9302 25.425 22.2985 24.5383 21.8952C24.4456 21.8547 24.3461 21.8315 24.245 21.8268C24.131 21.8151 24.0158 21.8279 23.9071 21.8645C23.7984 21.901 23.6988 21.9603 23.615 22.0385C23.6067 22.0352 23.495 22.1302 22.29 23.5902C22.2208 23.6831 22.1256 23.7533 22.0164 23.7919C21.9071 23.8305 21.7889 23.8357 21.6767 23.8068C21.5681 23.7777 21.4617 23.741 21.3583 23.6968C21.1517 23.6102 21.08 23.5768 20.9383 23.5168C19.9818 23.0994 19.0962 22.5354 18.3133 21.8452C18.1033 21.6618 17.9083 21.4618 17.7083 21.2685C17.0527 20.6405 16.4812 19.9302 16.0083 19.1552L15.91 18.9968C15.8394 18.8904 15.7823 18.7757 15.74 18.6552C15.6767 18.4102 15.8417 18.2135 15.8417 18.2135C15.8417 18.2135 16.2467 17.7702 16.435 17.5302C16.6183 17.2968 16.7733 17.0702 16.8733 16.9085C17.07 16.5918 17.1317 16.2668 17.0283 16.0152C16.5617 14.8752 16.0783 13.7402 15.5817 12.6135C15.4833 12.3902 15.1917 12.2302 14.9267 12.1985C14.8367 12.1885 14.7467 12.1785 14.6567 12.1718C14.4329 12.1607 14.2086 12.1629 13.985 12.1785L14.32 12.1652L14.3217 12.1668Z" fill="white"/>
</svg>
