<svg width="15" height="15" viewBox="0 0 15 15" fill="none" xmlns="http://www.w3.org/2000/svg">
<g id="ant-design:youtube-outlined">
<path id="Vector" d="M14.0625 7.4585C14.0625 7.42627 14.0625 7.38965 14.061 7.34717C14.0596 7.22852 14.0566 7.09521 14.0537 6.95312C14.042 6.54443 14.0215 6.13721 13.9893 5.75342C13.9453 5.22461 13.8809 4.78369 13.793 4.45264C13.7002 4.10715 13.5184 3.79206 13.2657 3.53886C13.013 3.28566 12.6983 3.10322 12.353 3.00977C11.9385 2.89844 11.127 2.82959 9.98438 2.78711C9.44092 2.7666 8.85937 2.75342 8.27783 2.74609C8.07422 2.74316 7.88525 2.7417 7.71533 2.74023H7.28467C7.11475 2.7417 6.92578 2.74316 6.72217 2.74609C6.14062 2.75342 5.55908 2.7666 5.01562 2.78711C3.87305 2.83105 3.06006 2.8999 2.64697 3.00977C2.30156 3.10299 1.98672 3.28535 1.734 3.53859C1.48128 3.79183 1.29955 4.10704 1.20703 4.45264C1.11768 4.78369 1.05469 5.22461 1.01074 5.75342C0.978516 6.13721 0.958008 6.54443 0.946289 6.95312C0.941895 7.09521 0.94043 7.22852 0.938965 7.34717C0.938965 7.38965 0.9375 7.42627 0.9375 7.4585V7.54053C0.9375 7.57275 0.9375 7.60938 0.938965 7.65186C0.94043 7.77051 0.943359 7.90381 0.946289 8.0459C0.958008 8.45459 0.978516 8.86182 1.01074 9.24561C1.05469 9.77441 1.11914 10.2153 1.20703 10.5464C1.39453 11.248 1.94531 11.8018 2.64697 11.9893C3.06006 12.1006 3.87305 12.1694 5.01562 12.2119C5.55908 12.2324 6.14062 12.2456 6.72217 12.2529C6.92578 12.2559 7.11475 12.2573 7.28467 12.2588H7.71533C7.88525 12.2573 8.07422 12.2559 8.27783 12.2529C8.85937 12.2456 9.44092 12.2324 9.98438 12.2119C11.127 12.168 11.9399 12.0991 12.353 11.9893C13.0547 11.8018 13.6055 11.2495 13.793 10.5464C13.8823 10.2153 13.9453 9.77441 13.9893 9.24561C14.0215 8.86182 14.042 8.45459 14.0537 8.0459C14.0581 7.90381 14.0596 7.77051 14.061 7.65186C14.061 7.60938 14.0625 7.57275 14.0625 7.54053V7.4585ZM13.0078 7.53467C13.0078 7.56543 13.0078 7.59912 13.0063 7.63867C13.0049 7.75293 13.002 7.87891 12.999 8.01514C12.9888 8.40479 12.9683 8.79443 12.9375 9.15625C12.8979 9.62793 12.8423 10.0146 12.7734 10.2739C12.6826 10.6123 12.416 10.8804 12.0791 10.9697C11.7715 11.0518 10.9966 11.1177 9.94336 11.1572C9.41016 11.1777 8.83594 11.1909 8.26318 11.1982C8.0625 11.2012 7.87646 11.2026 7.70947 11.2026H7.29053L6.73682 11.1982C6.16406 11.1909 5.59131 11.1777 5.05664 11.1572C4.00342 11.1162 3.22705 11.0518 2.9209 10.9697C2.58398 10.8789 2.31738 10.6123 2.22656 10.2739C2.15771 10.0146 2.10205 9.62793 2.0625 9.15625C2.03174 8.79443 2.0127 8.40479 2.00098 8.01514C1.99658 7.87891 1.99512 7.75146 1.99365 7.63867C1.99365 7.59912 1.99219 7.56397 1.99219 7.53467V7.46436C1.99219 7.43359 1.99219 7.3999 1.99365 7.36035C1.99512 7.24609 1.99805 7.12012 2.00098 6.98389C2.01123 6.59424 2.03174 6.20459 2.0625 5.84277C2.10205 5.37109 2.15771 4.98438 2.22656 4.7251C2.31738 4.38672 2.58398 4.11865 2.9209 4.0293C3.22852 3.94727 4.00342 3.88135 5.05664 3.8418C5.58984 3.82129 6.16406 3.80811 6.73682 3.80078C6.9375 3.79785 7.12354 3.79639 7.29053 3.79639H7.70947L8.26318 3.80078C8.83594 3.80811 9.40869 3.82129 9.94336 3.8418C10.9966 3.88281 11.7729 3.94727 12.0791 4.0293C12.416 4.12012 12.6826 4.38672 12.7734 4.7251C12.8423 4.98438 12.8979 5.37109 12.9375 5.84277C12.9683 6.20459 12.9873 6.59424 12.999 6.98389C13.0034 7.12012 13.0049 7.24756 13.0063 7.36035C13.0063 7.3999 13.0078 7.43506 13.0078 7.46436V7.53467ZM6.19629 9.4624L9.59473 7.48486L6.19629 5.53662V9.4624Z" fill="white"/>
</g>
</svg>
