<svg width="68" height="69" viewBox="0 0 68 69" fill="none" xmlns="http://www.w3.org/2000/svg">
<path d="M54.3544 5.90854C50.6333 9.84756 48.7813 14.5986 48.7813 20.1616V68C54.0115 68 58.4871 66.0305 62.2082 62.1087C65.9122 58.1697 67.7813 53.4187 67.7813 47.8557V0C62.5512 0 58.0755 1.96951 54.3544 5.90854Z" fill="#BC051E"/>
<path d="M0.658936 0V47.8506C0.658936 53.415 2.51092 58.1672 6.23204 62.1072C9.95316 66.0473 14.4288 68 19.6589 68V20.1667C19.6589 14.6023 17.807 9.85006 14.0858 5.91004C10.3819 1.97001 5.90623 0 0.658936 0Z" fill="#BC051E"/>
<path d="M44.4753 23.5803C44.4753 19.9516 41.5863 17 38.0344 17H31.9163C28.3644 17 25.4753 19.9516 25.4753 23.5803V58.5653C25.4753 58.791 25.4753 60.8918 25.4753 60.8918C25.4753 61.5169 25.5603 62.1419 25.7303 62.7149C26.478 66.1352 30.0299 68.7396 34.3975 68.9479C34.5845 68.9479 34.7714 69 34.9753 69C35.1793 69 35.3832 68.9479 35.5702 68.9479C35.9101 68.9305 36.2499 68.8958 36.5898 68.8437C36.6578 68.8437 36.7088 68.8437 36.7768 68.8264C40.3796 68.2534 43.2517 65.9963 44.0845 63.1142C44.3394 62.4197 44.4753 61.6731 44.4753 60.8918C44.4753 60.8918 44.4753 58.791 44.4753 58.5653V23.5803Z" fill="#BC051E"/>
</svg>
